<mxfile host="Electron" modified="2024-03-18T04:24:33.947Z" agent="Mozilla/5.0 (Windows NT 10.0; Win64; x64) AppleWebKit/537.36 (KHTML, like Gecko) draw.io/23.1.5 Chrome/120.0.6099.109 Electron/28.1.0 Safari/537.36" etag="ediTs4JbnRjH9C01n63B" version="23.1.5" type="device">
  <diagram name="Страница — 1" id="VFslNdxeShL4hAThGecV">
    <mxGraphModel dx="1573" dy="2783" grid="1" gridSize="10" guides="1" tooltips="1" connect="1" arrows="1" fold="1" page="1" pageScale="1" pageWidth="827" pageHeight="1169" math="0" shadow="0">
      <root>
        <mxCell id="0" />
        <mxCell id="1" parent="0" />
        <mxCell id="6T9FaYKTyBavGGdEl5Ly-4" value="" style="strokeWidth=2;html=1;shape=mxgraph.flowchart.annotation_1;align=left;pointerEvents=1;" vertex="1" parent="1">
          <mxGeometry x="40" y="40" width="50" height="80" as="geometry" />
        </mxCell>
        <mxCell id="6T9FaYKTyBavGGdEl5Ly-5" value="&lt;div&gt;#pragma once&lt;/div&gt;&lt;div&gt;#include &amp;lt;vector&amp;gt;&lt;/div&gt;&lt;div&gt;&lt;br&gt;&lt;/div&gt;&lt;div&gt;using namespace std;&lt;/div&gt;" style="text;strokeColor=none;fillColor=none;align=left;verticalAlign=middle;spacingLeft=4;spacingRight=4;overflow=hidden;points=[[0,0.5],[1,0.5]];portConstraint=eastwest;rotatable=0;whiteSpace=wrap;html=1;" vertex="1" parent="1">
          <mxGeometry x="40" y="40" width="220" height="80" as="geometry" />
        </mxCell>
        <mxCell id="6T9FaYKTyBavGGdEl5Ly-7" style="edgeStyle=orthogonalEdgeStyle;rounded=0;orthogonalLoop=1;jettySize=auto;html=1;exitX=0.5;exitY=1;exitDx=0;exitDy=0;" edge="1" parent="1" source="6T9FaYKTyBavGGdEl5Ly-6">
          <mxGeometry relative="1" as="geometry">
            <mxPoint x="240.2941176470589" y="220" as="targetPoint" />
          </mxGeometry>
        </mxCell>
        <mxCell id="6T9FaYKTyBavGGdEl5Ly-6" value="void CountingSort(vector&amp;lt;int&amp;gt;&amp;amp; vect)" style="ellipse;whiteSpace=wrap;html=1;" vertex="1" parent="1">
          <mxGeometry x="110" y="160" width="260" height="40" as="geometry" />
        </mxCell>
        <mxCell id="6T9FaYKTyBavGGdEl5Ly-14" style="edgeStyle=orthogonalEdgeStyle;rounded=0;orthogonalLoop=1;jettySize=auto;html=1;exitX=0;exitY=0.5;exitDx=0;exitDy=0;exitPerimeter=0;" edge="1" source="6T9FaYKTyBavGGdEl5Ly-16" parent="1">
          <mxGeometry relative="1" as="geometry">
            <mxPoint x="99.75999999999999" y="290" as="targetPoint" />
          </mxGeometry>
        </mxCell>
        <mxCell id="6T9FaYKTyBavGGdEl5Ly-15" style="edgeStyle=orthogonalEdgeStyle;rounded=0;orthogonalLoop=1;jettySize=auto;html=1;exitX=1;exitY=0.5;exitDx=0;exitDy=0;exitPerimeter=0;" edge="1" source="6T9FaYKTyBavGGdEl5Ly-16" parent="1">
          <mxGeometry relative="1" as="geometry">
            <mxPoint x="240" y="360" as="targetPoint" />
            <Array as="points">
              <mxPoint x="360" y="250" />
              <mxPoint x="360" y="360" />
            </Array>
          </mxGeometry>
        </mxCell>
        <mxCell id="6T9FaYKTyBavGGdEl5Ly-16" value="if (vect.size() &amp;lt; 2)" style="strokeWidth=2;html=1;shape=mxgraph.flowchart.decision;whiteSpace=wrap;" vertex="1" parent="1">
          <mxGeometry x="139.76" y="220" width="200" height="60" as="geometry" />
        </mxCell>
        <mxCell id="6T9FaYKTyBavGGdEl5Ly-17" value="1" style="text;html=1;strokeColor=none;fillColor=none;align=center;verticalAlign=middle;whiteSpace=wrap;rounded=0;" vertex="1" parent="1">
          <mxGeometry x="109.75999999999999" y="220" width="30" height="30" as="geometry" />
        </mxCell>
        <mxCell id="6T9FaYKTyBavGGdEl5Ly-18" value="0" style="text;html=1;strokeColor=none;fillColor=none;align=center;verticalAlign=middle;whiteSpace=wrap;rounded=0;" vertex="1" parent="1">
          <mxGeometry x="339.76" y="220" width="30" height="30" as="geometry" />
        </mxCell>
        <mxCell id="6T9FaYKTyBavGGdEl5Ly-21" style="edgeStyle=orthogonalEdgeStyle;rounded=0;orthogonalLoop=1;jettySize=auto;html=1;exitX=0.5;exitY=1;exitDx=0;exitDy=0;" edge="1" parent="1" source="6T9FaYKTyBavGGdEl5Ly-20">
          <mxGeometry relative="1" as="geometry">
            <mxPoint x="240" y="360" as="targetPoint" />
            <Array as="points">
              <mxPoint x="100" y="360" />
            </Array>
          </mxGeometry>
        </mxCell>
        <mxCell id="6T9FaYKTyBavGGdEl5Ly-20" value="return;" style="ellipse;whiteSpace=wrap;html=1;" vertex="1" parent="1">
          <mxGeometry x="40" y="290" width="120" height="40" as="geometry" />
        </mxCell>
        <mxCell id="6T9FaYKTyBavGGdEl5Ly-22" value="" style="endArrow=classic;html=1;rounded=0;" edge="1" parent="1">
          <mxGeometry width="50" height="50" relative="1" as="geometry">
            <mxPoint x="240" y="360" as="sourcePoint" />
            <mxPoint x="240" y="380" as="targetPoint" />
          </mxGeometry>
        </mxCell>
        <mxCell id="6T9FaYKTyBavGGdEl5Ly-26" value="" style="edgeStyle=orthogonalEdgeStyle;rounded=0;orthogonalLoop=1;jettySize=auto;html=1;" edge="1" parent="1" source="6T9FaYKTyBavGGdEl5Ly-24" target="6T9FaYKTyBavGGdEl5Ly-25">
          <mxGeometry relative="1" as="geometry" />
        </mxCell>
        <mxCell id="6T9FaYKTyBavGGdEl5Ly-24" value="int mx_value = vect[0];" style="rounded=1;whiteSpace=wrap;html=1;absoluteArcSize=1;arcSize=14;strokeWidth=2;" vertex="1" parent="1">
          <mxGeometry x="140" y="380" width="200" height="40" as="geometry" />
        </mxCell>
        <mxCell id="6T9FaYKTyBavGGdEl5Ly-27" style="edgeStyle=orthogonalEdgeStyle;rounded=0;orthogonalLoop=1;jettySize=auto;html=1;exitX=0.5;exitY=1;exitDx=0;exitDy=0;" edge="1" parent="1" source="6T9FaYKTyBavGGdEl5Ly-25">
          <mxGeometry relative="1" as="geometry">
            <mxPoint x="240" y="500" as="targetPoint" />
          </mxGeometry>
        </mxCell>
        <mxCell id="6T9FaYKTyBavGGdEl5Ly-25" value="int mn_value = vect[0];" style="rounded=1;whiteSpace=wrap;html=1;absoluteArcSize=1;arcSize=14;strokeWidth=2;" vertex="1" parent="1">
          <mxGeometry x="140" y="440" width="200" height="40" as="geometry" />
        </mxCell>
        <mxCell id="6T9FaYKTyBavGGdEl5Ly-28" style="edgeStyle=orthogonalEdgeStyle;rounded=0;orthogonalLoop=1;jettySize=auto;html=1;exitX=0.5;exitY=1;exitDx=0;exitDy=0;" edge="1" source="6T9FaYKTyBavGGdEl5Ly-30" parent="1">
          <mxGeometry relative="1" as="geometry">
            <mxPoint x="240" y="580" as="targetPoint" />
          </mxGeometry>
        </mxCell>
        <mxCell id="6T9FaYKTyBavGGdEl5Ly-29" style="edgeStyle=orthogonalEdgeStyle;rounded=0;orthogonalLoop=1;jettySize=auto;html=1;exitX=1;exitY=0.5;exitDx=0;exitDy=0;" edge="1" source="6T9FaYKTyBavGGdEl5Ly-30" parent="1">
          <mxGeometry relative="1" as="geometry">
            <mxPoint x="240" y="860" as="targetPoint" />
            <Array as="points">
              <mxPoint x="520" y="520" />
              <mxPoint x="520" y="840" />
            </Array>
          </mxGeometry>
        </mxCell>
        <mxCell id="6T9FaYKTyBavGGdEl5Ly-30" value="for (int i = 1; i &amp;lt; vect.size(); ++i)" style="verticalLabelPosition=middle;verticalAlign=middle;html=1;shape=hexagon;perimeter=hexagonPerimeter2;arcSize=6;size=0.15;labelPosition=center;align=center;" vertex="1" parent="1">
          <mxGeometry x="140" y="500" width="200" height="40" as="geometry" />
        </mxCell>
        <mxCell id="6T9FaYKTyBavGGdEl5Ly-31" value="1" style="text;html=1;strokeColor=none;fillColor=none;align=center;verticalAlign=middle;whiteSpace=wrap;rounded=0;" vertex="1" parent="1">
          <mxGeometry x="210" y="540" width="30" height="30" as="geometry" />
        </mxCell>
        <mxCell id="6T9FaYKTyBavGGdEl5Ly-32" value="{" style="text;html=1;strokeColor=none;fillColor=none;align=center;verticalAlign=middle;whiteSpace=wrap;rounded=0;" vertex="1" parent="1">
          <mxGeometry x="240" y="540" width="30" height="30" as="geometry" />
        </mxCell>
        <mxCell id="6T9FaYKTyBavGGdEl5Ly-33" value="0" style="text;html=1;strokeColor=none;fillColor=none;align=center;verticalAlign=middle;whiteSpace=wrap;rounded=0;" vertex="1" parent="1">
          <mxGeometry x="340" y="490" width="30" height="30" as="geometry" />
        </mxCell>
        <mxCell id="6T9FaYKTyBavGGdEl5Ly-34" style="edgeStyle=orthogonalEdgeStyle;rounded=0;orthogonalLoop=1;jettySize=auto;html=1;exitX=0;exitY=0.5;exitDx=0;exitDy=0;exitPerimeter=0;" edge="1" source="6T9FaYKTyBavGGdEl5Ly-36" parent="1">
          <mxGeometry relative="1" as="geometry">
            <mxPoint x="99.51" y="650" as="targetPoint" />
          </mxGeometry>
        </mxCell>
        <mxCell id="6T9FaYKTyBavGGdEl5Ly-35" style="edgeStyle=orthogonalEdgeStyle;rounded=0;orthogonalLoop=1;jettySize=auto;html=1;exitX=1;exitY=0.5;exitDx=0;exitDy=0;exitPerimeter=0;" edge="1" source="6T9FaYKTyBavGGdEl5Ly-36" parent="1">
          <mxGeometry relative="1" as="geometry">
            <mxPoint x="379.51" y="650" as="targetPoint" />
          </mxGeometry>
        </mxCell>
        <mxCell id="6T9FaYKTyBavGGdEl5Ly-36" value="if (mx_value &amp;lt; vect[i])" style="strokeWidth=2;html=1;shape=mxgraph.flowchart.decision;whiteSpace=wrap;" vertex="1" parent="1">
          <mxGeometry x="139.51" y="580" width="200" height="60" as="geometry" />
        </mxCell>
        <mxCell id="6T9FaYKTyBavGGdEl5Ly-37" value="1" style="text;html=1;strokeColor=none;fillColor=none;align=center;verticalAlign=middle;whiteSpace=wrap;rounded=0;" vertex="1" parent="1">
          <mxGeometry x="109.51" y="580" width="30" height="30" as="geometry" />
        </mxCell>
        <mxCell id="6T9FaYKTyBavGGdEl5Ly-38" value="0" style="text;html=1;strokeColor=none;fillColor=none;align=center;verticalAlign=middle;whiteSpace=wrap;rounded=0;" vertex="1" parent="1">
          <mxGeometry x="339.51" y="580" width="30" height="30" as="geometry" />
        </mxCell>
        <mxCell id="6T9FaYKTyBavGGdEl5Ly-51" style="edgeStyle=orthogonalEdgeStyle;rounded=0;orthogonalLoop=1;jettySize=auto;html=1;exitX=0.5;exitY=1;exitDx=0;exitDy=0;" edge="1" parent="1" source="6T9FaYKTyBavGGdEl5Ly-40">
          <mxGeometry relative="1" as="geometry">
            <mxPoint x="240" y="800" as="targetPoint" />
            <Array as="points">
              <mxPoint x="100" y="800" />
            </Array>
          </mxGeometry>
        </mxCell>
        <mxCell id="6T9FaYKTyBavGGdEl5Ly-40" value="mx_value = vect[i];" style="rounded=1;whiteSpace=wrap;html=1;absoluteArcSize=1;arcSize=14;strokeWidth=2;" vertex="1" parent="1">
          <mxGeometry x="30" y="650" width="140" height="40" as="geometry" />
        </mxCell>
        <mxCell id="6T9FaYKTyBavGGdEl5Ly-41" style="edgeStyle=orthogonalEdgeStyle;rounded=0;orthogonalLoop=1;jettySize=auto;html=1;exitX=0;exitY=0.5;exitDx=0;exitDy=0;exitPerimeter=0;" edge="1" source="6T9FaYKTyBavGGdEl5Ly-43" parent="1">
          <mxGeometry relative="1" as="geometry">
            <mxPoint x="240" y="720" as="targetPoint" />
          </mxGeometry>
        </mxCell>
        <mxCell id="6T9FaYKTyBavGGdEl5Ly-42" style="edgeStyle=orthogonalEdgeStyle;rounded=0;orthogonalLoop=1;jettySize=auto;html=1;exitX=1;exitY=0.5;exitDx=0;exitDy=0;exitPerimeter=0;" edge="1" source="6T9FaYKTyBavGGdEl5Ly-43" parent="1">
          <mxGeometry relative="1" as="geometry">
            <mxPoint x="380" y="780" as="targetPoint" />
            <Array as="points">
              <mxPoint x="500" y="680" />
              <mxPoint x="500" y="780" />
            </Array>
          </mxGeometry>
        </mxCell>
        <mxCell id="6T9FaYKTyBavGGdEl5Ly-43" value="if (mn_value &gt; vect[i])" style="strokeWidth=2;html=1;shape=mxgraph.flowchart.decision;whiteSpace=wrap;" vertex="1" parent="1">
          <mxGeometry x="280" y="650" width="200" height="60" as="geometry" />
        </mxCell>
        <mxCell id="6T9FaYKTyBavGGdEl5Ly-44" value="1" style="text;html=1;strokeColor=none;fillColor=none;align=center;verticalAlign=middle;whiteSpace=wrap;rounded=0;" vertex="1" parent="1">
          <mxGeometry x="250" y="650" width="30" height="30" as="geometry" />
        </mxCell>
        <mxCell id="6T9FaYKTyBavGGdEl5Ly-45" value="0" style="text;html=1;strokeColor=none;fillColor=none;align=center;verticalAlign=middle;whiteSpace=wrap;rounded=0;" vertex="1" parent="1">
          <mxGeometry x="480" y="650" width="30" height="30" as="geometry" />
        </mxCell>
        <mxCell id="6T9FaYKTyBavGGdEl5Ly-49" style="edgeStyle=orthogonalEdgeStyle;rounded=0;orthogonalLoop=1;jettySize=auto;html=1;exitX=0.5;exitY=1;exitDx=0;exitDy=0;" edge="1" parent="1" source="6T9FaYKTyBavGGdEl5Ly-48">
          <mxGeometry relative="1" as="geometry">
            <mxPoint x="380" y="780" as="targetPoint" />
            <Array as="points">
              <mxPoint x="240" y="780" />
            </Array>
          </mxGeometry>
        </mxCell>
        <mxCell id="6T9FaYKTyBavGGdEl5Ly-48" value="mn_value = vect[i];" style="rounded=1;whiteSpace=wrap;html=1;absoluteArcSize=1;arcSize=14;strokeWidth=2;" vertex="1" parent="1">
          <mxGeometry x="150" y="720" width="180" height="40" as="geometry" />
        </mxCell>
        <mxCell id="6T9FaYKTyBavGGdEl5Ly-50" value="" style="endArrow=classic;html=1;rounded=0;" edge="1" parent="1">
          <mxGeometry width="50" height="50" relative="1" as="geometry">
            <mxPoint x="380" y="780" as="sourcePoint" />
            <mxPoint x="240" y="800" as="targetPoint" />
            <Array as="points">
              <mxPoint x="380" y="800" />
            </Array>
          </mxGeometry>
        </mxCell>
        <mxCell id="6T9FaYKTyBavGGdEl5Ly-52" value="" style="endArrow=classic;html=1;rounded=0;entryX=0;entryY=0.5;entryDx=0;entryDy=0;" edge="1" parent="1" target="6T9FaYKTyBavGGdEl5Ly-30">
          <mxGeometry width="50" height="50" relative="1" as="geometry">
            <mxPoint x="240" y="800" as="sourcePoint" />
            <mxPoint x="140" y="520" as="targetPoint" />
            <Array as="points">
              <mxPoint x="240" y="820" />
              <mxPoint x="10" y="820" />
              <mxPoint x="10" y="520" />
            </Array>
          </mxGeometry>
        </mxCell>
        <mxCell id="6T9FaYKTyBavGGdEl5Ly-54" style="edgeStyle=orthogonalEdgeStyle;rounded=0;orthogonalLoop=1;jettySize=auto;html=1;exitX=0.5;exitY=1;exitDx=0;exitDy=0;" edge="1" parent="1" source="6T9FaYKTyBavGGdEl5Ly-53">
          <mxGeometry relative="1" as="geometry">
            <mxPoint x="239.5" y="920" as="targetPoint" />
          </mxGeometry>
        </mxCell>
        <mxCell id="6T9FaYKTyBavGGdEl5Ly-53" value="int countArrLenght = mx_value - mn_value + 1;" style="rounded=1;whiteSpace=wrap;html=1;absoluteArcSize=1;arcSize=14;strokeWidth=2;" vertex="1" parent="1">
          <mxGeometry x="99.50999999999999" y="860" width="280" height="40" as="geometry" />
        </mxCell>
        <mxCell id="6T9FaYKTyBavGGdEl5Ly-64" style="edgeStyle=orthogonalEdgeStyle;rounded=0;orthogonalLoop=1;jettySize=auto;html=1;exitX=0.5;exitY=1;exitDx=0;exitDy=0;" edge="1" parent="1" source="6T9FaYKTyBavGGdEl5Ly-57" target="6T9FaYKTyBavGGdEl5Ly-60">
          <mxGeometry relative="1" as="geometry" />
        </mxCell>
        <mxCell id="6T9FaYKTyBavGGdEl5Ly-57" value="int* countArr = new int[countArrLenght] {};" style="rounded=1;whiteSpace=wrap;html=1;absoluteArcSize=1;arcSize=14;strokeWidth=2;" vertex="1" parent="1">
          <mxGeometry x="99.99999999999999" y="920" width="280" height="40" as="geometry" />
        </mxCell>
        <mxCell id="6T9FaYKTyBavGGdEl5Ly-58" style="edgeStyle=orthogonalEdgeStyle;rounded=0;orthogonalLoop=1;jettySize=auto;html=1;exitX=0.5;exitY=1;exitDx=0;exitDy=0;" edge="1" source="6T9FaYKTyBavGGdEl5Ly-60" parent="1">
          <mxGeometry relative="1" as="geometry">
            <mxPoint x="240" y="1060" as="targetPoint" />
          </mxGeometry>
        </mxCell>
        <mxCell id="6T9FaYKTyBavGGdEl5Ly-59" style="edgeStyle=orthogonalEdgeStyle;rounded=0;orthogonalLoop=1;jettySize=auto;html=1;exitX=1;exitY=0.5;exitDx=0;exitDy=0;" edge="1" source="6T9FaYKTyBavGGdEl5Ly-60" parent="1" target="6T9FaYKTyBavGGdEl5Ly-67">
          <mxGeometry relative="1" as="geometry">
            <mxPoint x="240" y="1160" as="targetPoint" />
            <Array as="points">
              <mxPoint x="380" y="1000" />
              <mxPoint x="380" y="1140" />
              <mxPoint x="240" y="1140" />
            </Array>
          </mxGeometry>
        </mxCell>
        <mxCell id="6T9FaYKTyBavGGdEl5Ly-60" value="for (int i = 0; i &amp;lt; vect.size(); ++i)" style="verticalLabelPosition=middle;verticalAlign=middle;html=1;shape=hexagon;perimeter=hexagonPerimeter2;arcSize=6;size=0.15;labelPosition=center;align=center;" vertex="1" parent="1">
          <mxGeometry x="140" y="980" width="200" height="40" as="geometry" />
        </mxCell>
        <mxCell id="6T9FaYKTyBavGGdEl5Ly-61" value="1" style="text;html=1;strokeColor=none;fillColor=none;align=center;verticalAlign=middle;whiteSpace=wrap;rounded=0;" vertex="1" parent="1">
          <mxGeometry x="210" y="1020" width="30" height="30" as="geometry" />
        </mxCell>
        <mxCell id="6T9FaYKTyBavGGdEl5Ly-62" value="{" style="text;html=1;strokeColor=none;fillColor=none;align=center;verticalAlign=middle;whiteSpace=wrap;rounded=0;" vertex="1" parent="1">
          <mxGeometry x="240" y="1020" width="30" height="30" as="geometry" />
        </mxCell>
        <mxCell id="6T9FaYKTyBavGGdEl5Ly-63" value="0" style="text;html=1;strokeColor=none;fillColor=none;align=center;verticalAlign=middle;whiteSpace=wrap;rounded=0;" vertex="1" parent="1">
          <mxGeometry x="340" y="970" width="30" height="30" as="geometry" />
        </mxCell>
        <mxCell id="6T9FaYKTyBavGGdEl5Ly-66" style="edgeStyle=orthogonalEdgeStyle;rounded=0;orthogonalLoop=1;jettySize=auto;html=1;exitX=0.5;exitY=1;exitDx=0;exitDy=0;entryX=0;entryY=0.5;entryDx=0;entryDy=0;" edge="1" parent="1" source="6T9FaYKTyBavGGdEl5Ly-65" target="6T9FaYKTyBavGGdEl5Ly-60">
          <mxGeometry relative="1" as="geometry" />
        </mxCell>
        <mxCell id="6T9FaYKTyBavGGdEl5Ly-65" value="countArr[vect[i] - mn_value]++;" style="rounded=1;whiteSpace=wrap;html=1;absoluteArcSize=1;arcSize=14;strokeWidth=2;" vertex="1" parent="1">
          <mxGeometry x="140" y="1060" width="200" height="40" as="geometry" />
        </mxCell>
        <mxCell id="6T9FaYKTyBavGGdEl5Ly-68" style="edgeStyle=orthogonalEdgeStyle;rounded=0;orthogonalLoop=1;jettySize=auto;html=1;exitX=0.5;exitY=1;exitDx=0;exitDy=0;" edge="1" parent="1" source="6T9FaYKTyBavGGdEl5Ly-67">
          <mxGeometry relative="1" as="geometry">
            <mxPoint x="240" y="1220" as="targetPoint" />
          </mxGeometry>
        </mxCell>
        <mxCell id="6T9FaYKTyBavGGdEl5Ly-67" value="int index = 0;" style="rounded=1;whiteSpace=wrap;html=1;absoluteArcSize=1;arcSize=14;strokeWidth=2;" vertex="1" parent="1">
          <mxGeometry x="190" y="1160" width="100" height="40" as="geometry" />
        </mxCell>
        <mxCell id="6T9FaYKTyBavGGdEl5Ly-69" style="edgeStyle=orthogonalEdgeStyle;rounded=0;orthogonalLoop=1;jettySize=auto;html=1;exitX=0.5;exitY=1;exitDx=0;exitDy=0;" edge="1" source="6T9FaYKTyBavGGdEl5Ly-71" parent="1">
          <mxGeometry relative="1" as="geometry">
            <mxPoint x="240" y="1300" as="targetPoint" />
          </mxGeometry>
        </mxCell>
        <mxCell id="6T9FaYKTyBavGGdEl5Ly-70" style="edgeStyle=orthogonalEdgeStyle;rounded=0;orthogonalLoop=1;jettySize=auto;html=1;exitX=1;exitY=0.5;exitDx=0;exitDy=0;" edge="1" source="6T9FaYKTyBavGGdEl5Ly-71" parent="1">
          <mxGeometry relative="1" as="geometry">
            <mxPoint x="500" y="1300" as="targetPoint" />
            <Array as="points">
              <mxPoint x="500" y="1240" />
              <mxPoint x="500" y="1300" />
            </Array>
          </mxGeometry>
        </mxCell>
        <mxCell id="6T9FaYKTyBavGGdEl5Ly-71" value="for (int i = 0; i &amp;lt; countArrLenght; ++i)" style="verticalLabelPosition=middle;verticalAlign=middle;html=1;shape=hexagon;perimeter=hexagonPerimeter2;arcSize=6;size=0.15;labelPosition=center;align=center;" vertex="1" parent="1">
          <mxGeometry x="120" y="1220" width="240" height="40" as="geometry" />
        </mxCell>
        <mxCell id="6T9FaYKTyBavGGdEl5Ly-72" value="1" style="text;html=1;strokeColor=none;fillColor=none;align=center;verticalAlign=middle;whiteSpace=wrap;rounded=0;" vertex="1" parent="1">
          <mxGeometry x="210" y="1260" width="30" height="30" as="geometry" />
        </mxCell>
        <mxCell id="6T9FaYKTyBavGGdEl5Ly-73" value="{" style="text;html=1;strokeColor=none;fillColor=none;align=center;verticalAlign=middle;whiteSpace=wrap;rounded=0;" vertex="1" parent="1">
          <mxGeometry x="240" y="1260" width="30" height="30" as="geometry" />
        </mxCell>
        <mxCell id="6T9FaYKTyBavGGdEl5Ly-74" value="0" style="text;html=1;strokeColor=none;fillColor=none;align=center;verticalAlign=middle;whiteSpace=wrap;rounded=0;" vertex="1" parent="1">
          <mxGeometry x="340" y="1210" width="30" height="30" as="geometry" />
        </mxCell>
        <mxCell id="6T9FaYKTyBavGGdEl5Ly-75" style="edgeStyle=orthogonalEdgeStyle;rounded=0;orthogonalLoop=1;jettySize=auto;html=1;exitX=0.5;exitY=1;exitDx=0;exitDy=0;" edge="1" source="6T9FaYKTyBavGGdEl5Ly-77" parent="1">
          <mxGeometry relative="1" as="geometry">
            <mxPoint x="240" y="1380" as="targetPoint" />
          </mxGeometry>
        </mxCell>
        <mxCell id="6T9FaYKTyBavGGdEl5Ly-76" style="edgeStyle=orthogonalEdgeStyle;rounded=0;orthogonalLoop=1;jettySize=auto;html=1;exitX=1;exitY=0.5;exitDx=0;exitDy=0;entryX=0;entryY=0.5;entryDx=0;entryDy=0;" edge="1" source="6T9FaYKTyBavGGdEl5Ly-77" parent="1" target="6T9FaYKTyBavGGdEl5Ly-71">
          <mxGeometry relative="1" as="geometry">
            <mxPoint x="380" y="1380" as="targetPoint" />
            <Array as="points">
              <mxPoint x="380" y="1320" />
              <mxPoint x="380" y="1450" />
              <mxPoint x="110" y="1450" />
              <mxPoint x="110" y="1240" />
            </Array>
          </mxGeometry>
        </mxCell>
        <mxCell id="6T9FaYKTyBavGGdEl5Ly-77" value="for (int j = 0; j &amp;lt; countArr[i]; ++j)" style="verticalLabelPosition=middle;verticalAlign=middle;html=1;shape=hexagon;perimeter=hexagonPerimeter2;arcSize=6;size=0.15;labelPosition=center;align=center;" vertex="1" parent="1">
          <mxGeometry x="140" y="1300" width="200" height="40" as="geometry" />
        </mxCell>
        <mxCell id="6T9FaYKTyBavGGdEl5Ly-78" value="1" style="text;html=1;strokeColor=none;fillColor=none;align=center;verticalAlign=middle;whiteSpace=wrap;rounded=0;" vertex="1" parent="1">
          <mxGeometry x="210" y="1340" width="30" height="30" as="geometry" />
        </mxCell>
        <mxCell id="6T9FaYKTyBavGGdEl5Ly-79" value="{" style="text;html=1;strokeColor=none;fillColor=none;align=center;verticalAlign=middle;whiteSpace=wrap;rounded=0;" vertex="1" parent="1">
          <mxGeometry x="240" y="1340" width="30" height="30" as="geometry" />
        </mxCell>
        <mxCell id="6T9FaYKTyBavGGdEl5Ly-80" value="0" style="text;html=1;strokeColor=none;fillColor=none;align=center;verticalAlign=middle;whiteSpace=wrap;rounded=0;" vertex="1" parent="1">
          <mxGeometry x="340" y="1290" width="30" height="30" as="geometry" />
        </mxCell>
        <mxCell id="6T9FaYKTyBavGGdEl5Ly-82" style="edgeStyle=orthogonalEdgeStyle;rounded=0;orthogonalLoop=1;jettySize=auto;html=1;exitX=0.5;exitY=1;exitDx=0;exitDy=0;entryX=0;entryY=0.5;entryDx=0;entryDy=0;" edge="1" parent="1" source="6T9FaYKTyBavGGdEl5Ly-81" target="6T9FaYKTyBavGGdEl5Ly-77">
          <mxGeometry relative="1" as="geometry" />
        </mxCell>
        <mxCell id="6T9FaYKTyBavGGdEl5Ly-81" value="vect[index++] = i + mn_value;" style="rounded=1;whiteSpace=wrap;html=1;absoluteArcSize=1;arcSize=14;strokeWidth=2;" vertex="1" parent="1">
          <mxGeometry x="150" y="1380" width="180" height="40" as="geometry" />
        </mxCell>
        <mxCell id="6T9FaYKTyBavGGdEl5Ly-84" value="delete[] countArr;" style="shape=parallelogram;html=1;strokeWidth=2;perimeter=parallelogramPerimeter;whiteSpace=wrap;rounded=1;arcSize=12;size=0.16666666666666666;" vertex="1" parent="1">
          <mxGeometry x="420" y="1300" width="160" height="40" as="geometry" />
        </mxCell>
      </root>
    </mxGraphModel>
  </diagram>
</mxfile>
